A méltán népszerű tehetségkutató sorozat gála koncertje 2010. december 23-án a Papp László Sport Arénában.




Audio Video:

Format : AVI
Format/Info : Audio Video Interleave
Format profile : OpenDML
File size : 1.37 GiB
Duration : 4h 2mn
Overall bit rate : 813 Kbps
Writing application : Lavf51.12.1

Video
ID : 0
Format : MPEG-4 Visual
Format profile : Simple@L1
Format settings, BVOP : No
Format settings, QPel : No
Format settings, GMC : No warppoints
Format settings, Matrix : Default (H.263)
Codec ID : DX50
Codec ID/Hint : DivX 5
Duration : 4h 2mn
Bit rate : 750 Kbps
Width : 720 pixels
Height : 576 pixels
Display aspect ratio : 5:4
Frame rate : 29.970 fps
Standard : PAL
Resolution : 24 bits
Colorimetry : 4:2:0
Scan type : Progressive
Bits/(Pixel*Frame) : 0.060
Stream size : 1.27 GiB (92%)
Writing library : Lavc51.40.4

Audio
ID : 1
Format : MPEG Audio
Format version : Version 1
Format profile : Layer 3
Codec ID : 55
Codec ID/Hint : MP3
Duration : 1h 46mn
Bit rate mode : Constant
Bit rate : 128 Kbps
Channel(s) : 2 channels
Sampling rate : 44.1 KHz
Resolution : 16 bits
Stream size : 97.3 MiB (7%)
Alignment : Aligned on interleaves
Interleave, duration : 26 ms (0.78 video frame)